<?xml version="1.0" encoding="UTF-8"?>
<svg width="110px" height="34px" viewBox="0 0 110 34" version="1.1" xmlns="http://www.w3.org/2000/svg" xmlns:xlink="http://www.w3.org/1999/xlink">
    <!-- Generator: Sketch 42 (36781) - http://www.bohemiancoding.com/sketch -->
    <title>Artboard</title>
    <desc>Created with Sketch.</desc>
    <defs></defs>
    <g id="Page-1" stroke="none" stroke-width="1" fill="none" fill-rule="evenodd">
        <g id="Artboard">
            <path d="M38.7070312,26 L55.0722656,26 L55.0722656,22.3261719 L42.5917969,22.3261719 L42.5917969,0.37109375 L38.7070312,0.37109375 L38.7070312,26 Z M57.4980469,16.859375 C57.4980469,14.9374904 57.6562484,13.4609427 57.9726562,12.4296875 C58.3007829,11.42187 58.8046841,10.5722691 59.484375,9.88085938 C59.9882838,9.27148133 60.6914017,8.7265649 61.59375,8.24609375 C62.4843795,7.78906021 63.6269462,7.54882824 65.0214844,7.52539062 C66.4628978,7.54882824 67.6289018,7.78906021 68.5195312,8.24609375 C69.3984419,8.7265649 70.0781226,9.27148133 70.5585938,9.88085938 C71.2851599,10.5722691 71.8007797,11.42187 72.1054688,12.4296875 C72.398439,13.4609427 72.5449219,14.9374904 72.5449219,16.859375 C72.5449219,18.7812596 72.398439,20.2460887 72.1054688,21.2539062 C71.8007797,22.2617238 71.2851599,23.1347619 70.5585938,23.8730469 C70.3242176,24.1425795 70.0371111,24.4062487 69.6972656,24.6640625 C69.3925766,24.9570327 69.0000024,25.2089833 68.5195312,25.4199219 C67.6289018,25.9238306 66.4628978,26.1874999 65.0214844,26.2109375 C63.6269462,26.1874999 62.4843795,25.9238306 61.59375,25.4199219 C60.6914017,24.9628883 59.9882838,24.4472685 59.484375,23.8730469 C58.8046841,23.1347619 58.3007829,22.2617238 57.9726562,21.2539062 C57.6562484,20.2460887 57.4980469,18.7812596 57.4980469,16.859375 Z M68.8710938,16.8945312 C68.8710938,15.5937435 68.8125006,14.6445342 68.6953125,14.046875 C68.5781244,13.4726534 68.3378924,12.9687522 67.9746094,12.5351562 C67.7050768,12.1249979 67.3066433,11.8027355 66.7792969,11.5683594 C66.2753881,11.3222644 65.6894565,11.1992188 65.0214844,11.1992188 C64.4003875,11.1992188 63.8261745,11.3222644 63.2988281,11.5683594 C62.7949194,11.8027355 62.3847672,12.1249979 62.0683594,12.5351562 C61.7519515,12.9687522 61.5234382,13.4726534 61.3828125,14.046875 C61.2421868,14.6445342 61.171875,15.5820249 61.171875,16.859375 C61.171875,18.1250063 61.2421868,19.0507783 61.3828125,19.6367188 C61.5234382,20.234378 61.7519515,20.7617165 62.0683594,21.21875 C62.3847672,21.5703143 62.7949194,21.880858 63.2988281,22.1503906 C63.8261745,22.4082044 64.4003875,22.5371094 65.0214844,22.5371094 C65.6894565,22.5371094 66.2753881,22.4082044 66.7792969,22.1503906 C67.3066433,21.880858 67.7050768,21.5703143 67.9746094,21.21875 C68.3378924,20.7617165 68.5781244,20.234378 68.6953125,19.6367188 C68.8125006,19.0507783 68.8710938,18.136725 68.8710938,16.8945312 Z M86.6601562,24.0839844 C85.453119,25.455085 83.8828222,26.1640623 81.9492188,26.2109375 C80.7656191,26.1874999 79.7812539,25.9355493 78.9960938,25.4550781 C78.1757771,24.9980446 77.5488303,24.505862 77.1152344,23.9785156 C76.6347632,23.3808564 76.2890636,22.6484418 76.078125,21.78125 C75.8554676,20.925777 75.7441406,19.296887 75.7441406,16.8945312 C75.7441406,14.4453003 75.8554676,12.7871137 76.078125,11.9199219 C76.2890636,11.0644488 76.6347632,10.3437529 77.1152344,9.7578125 C77.5488303,9.18359088 78.1757771,8.66797104 78.9960938,8.2109375 C79.7812539,7.77734158 80.7656191,7.54882824 81.9492188,7.52539062 C83.7656341,7.52539062 85.3359309,8.24608654 86.6601562,9.6875 L86.6601562,7.75390625 L90.3339844,7.75390625 L90.3339844,25.5605469 C90.2871091,28.3027481 89.4961014,30.3183529 87.9609375,31.6074219 C86.4140548,32.9316472 84.5625108,33.59375 82.40625,33.59375 C79.9335814,33.5468748 77.8242275,32.5273537 76.078125,30.5351562 L78.9257812,28.2675781 C79.3945336,28.701174 79.9335907,29.070311 80.5429688,29.375 C81.1640656,29.7148454 81.8085904,29.8964843 82.4765625,29.9199219 C83.730475,29.9199219 84.7382774,29.5742222 85.5,28.8828125 C86.2500038,28.179684 86.6367186,27.2070375 86.6601562,25.9648438 L86.6601562,24.0839844 Z M79.4179688,16.8945312 C79.4179688,18.2890695 79.4648433,19.2499974 79.5585938,19.7773438 C79.6406254,20.3281278 79.8339829,20.7851544 80.1386719,21.1484375 C80.3847669,21.4765641 80.7597631,21.7753893 81.2636719,22.0449219 C81.744143,22.3730485 82.3417933,22.5371094 83.0566406,22.5371094 C83.7714879,22.5371094 84.3691382,22.3730485 84.8496094,22.0449219 C85.3300805,21.7753893 85.6933581,21.4765641 85.9394531,21.1484375 C86.2441421,20.7851544 86.4492182,20.3281278 86.5546875,19.7773438 C86.6250004,19.2499974 86.6601562,18.2890695 86.6601562,16.8945312 C86.6601562,15.4765554 86.6250004,14.4921903 86.5546875,13.9414062 C86.4492182,13.3906222 86.2441421,12.9453142 85.9394531,12.6054688 C85.6933581,12.2773421 85.3300805,11.9550797 84.8496094,11.6386719 C84.3691382,11.3691393 83.7714879,11.2226564 83.0566406,11.1992188 C82.3417933,11.2226564 81.744143,11.3691393 81.2636719,11.6386719 C80.7597631,11.9550797 80.3847669,12.2773421 80.1386719,12.6054688 C79.8339829,12.9453142 79.6406254,13.3906222 79.5585938,13.9414062 C79.4648433,14.4921903 79.4179688,15.4765554 79.4179688,16.8945312 Z M94.1835938,16.859375 C94.1835938,14.9374904 94.3417953,13.4609427 94.6582031,12.4296875 C94.9863298,11.42187 95.490231,10.5722691 96.1699219,9.88085938 C96.6738306,9.27148133 97.3769486,8.7265649 98.2792969,8.24609375 C99.1699263,7.78906021 100.312493,7.54882824 101.707031,7.52539062 C103.148445,7.54882824 104.314449,7.78906021 105.205078,8.24609375 C106.083989,8.7265649 106.763669,9.27148133 107.244141,9.88085938 C107.970707,10.5722691 108.486327,11.42187 108.791016,12.4296875 C109.083986,13.4609427 109.230469,14.9374904 109.230469,16.859375 C109.230469,18.7812596 109.083986,20.2460887 108.791016,21.2539062 C108.486327,22.2617238 107.970707,23.1347619 107.244141,23.8730469 C107.009764,24.1425795 106.722658,24.4062487 106.382812,24.6640625 C106.078123,24.9570327 105.685549,25.2089833 105.205078,25.4199219 C104.314449,25.9238306 103.148445,26.1874999 101.707031,26.2109375 C100.312493,26.1874999 99.1699263,25.9238306 98.2792969,25.4199219 C97.3769486,24.9628883 96.6738306,24.4472685 96.1699219,23.8730469 C95.490231,23.1347619 94.9863298,22.2617238 94.6582031,21.2539062 C94.3417953,20.2460887 94.1835938,18.7812596 94.1835938,16.859375 Z M105.556641,16.8945312 C105.556641,15.5937435 105.498047,14.6445342 105.380859,14.046875 C105.263671,13.4726534 105.023439,12.9687522 104.660156,12.5351562 C104.390624,12.1249979 103.99219,11.8027355 103.464844,11.5683594 C102.960935,11.3222644 102.375003,11.1992188 101.707031,11.1992188 C101.085934,11.1992188 100.511721,11.3222644 99.984375,11.5683594 C99.4804662,11.8027355 99.0703141,12.1249979 98.7539062,12.5351562 C98.4374984,12.9687522 98.2089851,13.4726534 98.0683594,14.046875 C97.9277337,14.6445342 97.8574219,15.5820249 97.8574219,16.859375 C97.8574219,18.1250063 97.9277337,19.0507783 98.0683594,19.6367188 C98.2089851,20.234378 98.4374984,20.7617165 98.7539062,21.21875 C99.0703141,21.5703143 99.4804662,21.880858 99.984375,22.1503906 C100.511721,22.4082044 101.085934,22.5371094 101.707031,22.5371094 C102.375003,22.5371094 102.960935,22.4082044 103.464844,22.1503906 C103.99219,21.880858 104.390624,21.5703143 104.660156,21.21875 C105.023439,20.7617165 105.263671,20.234378 105.380859,19.6367188 C105.498047,19.0507783 105.556641,18.136725 105.556641,16.8945312 Z" id="Logo" fill="#848484"></path>
            <rect id="Rectangle" fill="#D8D8D8" x="0" y="3" width="21" height="21"></rect>
        </g>
    </g>
</svg>